<svg width="496" height="76" viewBox="0 0 496 76" xmlns="http://www.w3.org/2000/svg" role="img"
    aria-labelledby="ioTitle ioDesc">
    <title id="ioTitle">Logo elucidar.io</title>
    <desc id="ioDesc">"elucidar" e "io" separados por um ponto roxo entre eles.</desc>
    <g clip-path="url(#clip0_1_520)">
        <path
            d="M26.4886 75.375C21.0114 75.375 16.2841 74.2955 12.3068 72.1364C8.35227 69.9546 5.30682 66.8523 3.17045 62.8296C1.05682 58.7841 0 53.9773 0 48.4091C0 43 1.06818 38.2727 3.20455 34.2273C5.34091 30.1591 8.35227 27 12.2386 24.75C16.125 22.4773 20.7045 21.3409 25.9773 21.3409C29.7045 21.3409 33.1136 21.9205 36.2045 23.0795C39.2955 24.2386 41.9659 25.9545 44.2159 28.2273C46.4659 30.5 48.2159 33.3068 49.4659 36.6477C50.7159 39.9659 51.3409 43.7727 51.3409 48.0682V52.2273H5.82955V42.5455H35.8295C35.8068 40.7727 35.3864 39.1932 34.5682 37.8068C33.75 36.4205 32.625 35.3409 31.1932 34.5682C29.7841 33.7727 28.1591 33.375 26.3182 33.375C24.4545 33.375 22.7841 33.7955 21.3068 34.6364C19.8295 35.4546 18.6591 36.5796 17.7955 38.0114C16.9318 39.4205 16.4773 41.0227 16.4318 42.8182V52.6705C16.4318 54.8068 16.8523 56.6818 17.6932 58.2955C18.5341 59.8864 19.7273 61.125 21.2727 62.0114C22.8182 62.8977 24.6591 63.3409 26.7955 63.3409C28.2727 63.3409 29.6136 63.1364 30.8182 62.7273C32.0227 62.3182 33.0568 61.7159 33.9205 60.9205C34.7841 60.125 35.4318 59.1477 35.8636 57.9886L51.1705 58.4318C50.5341 61.8636 49.1364 64.8523 46.9773 67.3977C44.8409 69.9205 42.0341 71.8864 38.5568 73.2955C35.0795 74.6818 31.0568 75.375 26.4886 75.375Z" />
        <path
            d="M59.8551 5H76.5256V58.0227C76.5483 59.3864 76.8551 60.3977 77.446 61.0568C78.0369 61.6932 78.9688 62.0114 80.2415 62.0114C80.9006 61.9886 81.4233 61.9546 81.8097 61.9091C82.196 61.8409 82.5142 61.7614 82.7642 61.6705L85.2869 73.4318C84.5142 73.6818 83.5824 73.9318 82.4915 74.1818C81.4233 74.4318 79.8778 74.6023 77.8551 74.6932C71.696 74.9659 67.1619 73.9205 64.2528 71.5568C61.3437 69.1705 59.8778 65.2727 59.8551 59.8636V5Z" />
        <path
            d="M123.92 51.7841V22H140.557V74.3864H124.67V64.6364H124.125C122.966 67.8409 120.989 70.3864 118.193 72.2727C115.42 74.1364 112.068 75.0682 108.136 75.0682C104.568 75.0682 101.432 74.25 98.7273 72.6136C96.0227 70.9773 93.9205 68.6932 92.4205 65.7614C90.9205 62.8068 90.1591 59.3523 90.1364 55.3977V22H106.807V52.125C106.83 54.9659 107.58 57.2045 109.057 58.8409C110.534 60.4773 112.545 61.2955 115.091 61.2955C116.75 61.2955 118.239 60.9318 119.557 60.2045C120.898 59.4545 121.955 58.375 122.727 56.9659C123.523 55.5341 123.92 53.8068 123.92 51.7841Z" />
        <path
            d="M175.611 75.375C170.088 75.375 165.349 74.2386 161.395 71.9659C157.463 69.6932 154.44 66.5341 152.327 62.4886C150.213 58.4205 149.156 53.7159 149.156 48.375C149.156 43.0114 150.213 38.3068 152.327 34.2614C154.463 30.1932 157.497 27.0227 161.429 24.75C165.384 22.4773 170.099 21.3409 175.577 21.3409C180.418 21.3409 184.634 22.2159 188.224 23.9659C191.838 25.7159 194.656 28.1932 196.679 31.3977C198.724 34.5796 199.804 38.3182 199.918 42.6136H184.338C184.02 39.9318 183.111 37.8296 181.611 36.3068C180.134 34.7841 178.202 34.0227 175.815 34.0227C173.884 34.0227 172.19 34.5682 170.736 35.6591C169.281 36.7273 168.145 38.3182 167.327 40.4318C166.531 42.5227 166.134 45.1136 166.134 48.2045C166.134 51.2955 166.531 53.9091 167.327 56.0455C168.145 58.1591 169.281 59.7614 170.736 60.8523C172.19 61.9205 173.884 62.4545 175.815 62.4545C177.361 62.4545 178.724 62.125 179.906 61.4659C181.111 60.8068 182.099 59.8409 182.872 58.5682C183.645 57.2727 184.134 55.7046 184.338 53.8636H199.918C199.759 58.1818 198.679 61.9546 196.679 65.1818C194.702 68.4091 191.918 70.9205 188.327 72.7159C184.759 74.4886 180.52 75.375 175.611 75.375Z" />
        <path
            d="M208.449 74.3864V22H225.119V74.3864H208.449ZM216.801 15.9205C214.46 15.9205 212.449 15.1477 210.767 13.6023C209.085 12.0341 208.244 10.1477 208.244 7.94318C208.244 5.76136 209.085 3.89773 210.767 2.35228C212.449 0.784092 214.46 0 216.801 0C219.165 0 221.176 0.784092 222.835 2.35228C224.517 3.89773 225.358 5.76136 225.358 7.94318C225.358 10.1477 224.517 12.0341 222.835 13.6023C221.176 15.1477 219.165 15.9205 216.801 15.9205Z" />
        <path
            d="M254.855 75.1364C250.991 75.1364 247.48 74.1364 244.321 72.1364C241.162 70.1364 238.639 67.1364 236.753 63.1364C234.866 59.1364 233.923 54.1705 233.923 48.2386C233.923 42.0795 234.901 37.0114 236.855 33.0341C238.81 29.0568 241.366 26.1136 244.526 24.2045C247.707 22.2955 251.128 21.3409 254.787 21.3409C257.537 21.3409 259.889 21.8182 261.844 22.7727C263.798 23.7045 265.412 24.9091 266.685 26.3864C267.957 27.8636 268.923 29.3977 269.582 30.9886H269.923V5H286.594V74.3864H270.094V65.8977H269.582C268.878 67.5114 267.878 69.0227 266.582 70.4318C265.287 71.8409 263.662 72.9773 261.707 73.8409C259.776 74.7046 257.491 75.1364 254.855 75.1364ZM260.651 62.1477C262.673 62.1477 264.401 61.5795 265.832 60.4432C267.264 59.2841 268.366 57.6591 269.139 55.5682C269.912 53.4773 270.298 51.0227 270.298 48.2045C270.298 45.3409 269.912 42.875 269.139 40.8068C268.389 38.7386 267.287 37.1477 265.832 36.0341C264.401 34.9205 262.673 34.3636 260.651 34.3636C258.582 34.3636 256.832 34.9318 255.401 36.0682C253.969 37.2045 252.878 38.8068 252.128 40.875C251.401 42.9432 251.037 45.3864 251.037 48.2045C251.037 51.0227 251.412 53.4773 252.162 55.5682C252.912 57.6591 253.991 59.2841 255.401 60.4432C256.832 61.5795 258.582 62.1477 260.651 62.1477Z" />
        <path
            d="M316.261 75.1364C312.398 75.1364 308.886 74.1364 305.727 72.1364C302.568 70.1364 300.045 67.1364 298.159 63.1364C296.273 59.1364 295.33 54.1705 295.33 48.2386C295.33 42.0795 296.307 37.0114 298.261 33.0341C300.216 29.0568 302.773 26.1136 305.932 24.2045C309.114 22.2955 312.534 21.3409 316.193 21.3409C318.943 21.3409 321.295 21.8182 323.25 22.7727C325.205 23.7045 326.818 24.9091 328.091 26.3864C329.364 27.8636 330.33 29.3977 330.989 30.9886H331.33V22H348V74.3864H331.5V65.8977H330.989C330.284 67.5114 329.284 69.0227 327.989 70.4318C326.693 71.8409 325.068 72.9773 323.114 73.8409C321.182 74.7046 318.898 75.1364 316.261 75.1364ZM322.057 62.1477C324.08 62.1477 325.807 61.5795 327.239 60.4432C328.67 59.2841 329.773 57.6591 330.545 55.5682C331.318 53.4773 331.705 51.0227 331.705 48.2045C331.705 45.3409 331.318 42.875 330.545 40.8068C329.795 38.7386 328.693 37.1477 327.239 36.0341C325.807 34.9205 324.08 34.3636 322.057 34.3636C319.989 34.3636 318.239 34.9318 316.807 36.0682C315.375 37.2045 314.284 38.8068 313.534 40.875C312.807 42.9432 312.443 45.3864 312.443 48.2045C312.443 51.0227 312.818 53.4773 313.568 55.5682C314.318 57.6591 315.398 59.2841 316.807 60.4432C318.239 61.5795 319.989 62.1477 322.057 62.1477Z" />
        <path
            d="M358.543 74.3864V22H374.736V31.5682H375.281C376.236 28.1136 377.793 25.5455 379.952 23.8636C382.111 22.1591 384.622 21.3068 387.486 21.3068C388.872 21.3068 390.19 21.4773 391.44 21.8182C392.69 22.1591 393.815 22.625 394.815 23.2159L389.906 36.9205C389.179 36.5568 388.395 36.25 387.554 36C386.736 35.75 385.827 35.625 384.827 35.625C383.099 35.625 381.497 36.0568 380.02 36.9205C378.565 37.7841 377.406 38.9886 376.543 40.5341C375.679 42.0568 375.236 43.8636 375.213 45.9545V74.3864H358.543Z" />
        <path
            d="M417.705 74.9947V22H434.375V74.9947H417.705ZM426.057 16.5288C423.716 16.5288 421.705 15.756 420.023 14.2106C418.341 12.6424 417.5 10.756 417.5 8.55149C417.5 6.36967 418.341 4.50603 420.023 2.96058C421.705 1.3924 423.716 0.608306 426.057 0.608306C428.42 0.608306 430.432 1.3924 432.091 2.96058C433.773 4.50603 434.614 6.36967 434.614 8.55149C434.614 10.756 433.773 12.6424 432.091 14.2106C430.432 15.756 428.42 16.5288 426.057 16.5288Z" />
        <path
            d="M469.429 75.9833C463.929 75.9833 459.202 74.8583 455.247 72.6083C451.315 70.3356 448.281 67.1765 446.145 63.131C444.031 59.0629 442.974 54.3469 442.974 48.9833C442.974 43.5969 444.031 38.881 446.145 34.8356C448.281 30.7674 451.315 27.6083 455.247 25.3583C459.202 23.0856 463.929 21.9492 469.429 21.9492C474.929 21.9492 479.645 23.0856 483.577 25.3583C487.531 27.6083 490.565 30.7674 492.679 34.8356C494.815 38.881 495.884 43.5969 495.884 48.9833C495.884 54.3469 494.815 59.0629 492.679 63.131C490.565 67.1765 487.531 70.3356 483.577 72.6083C479.645 74.8583 474.929 75.9833 469.429 75.9833ZM469.531 63.4038C471.531 63.4038 473.224 62.7901 474.611 61.5629C475.997 60.3356 477.054 58.631 477.781 56.4492C478.531 54.2674 478.906 51.7447 478.906 48.881C478.906 45.9719 478.531 43.4265 477.781 41.2447C477.054 39.0629 475.997 37.3583 474.611 36.131C473.224 34.9038 471.531 34.2901 469.531 34.2901C467.463 34.2901 465.713 34.9038 464.281 36.131C462.872 37.3583 461.793 39.0629 461.043 41.2447C460.315 43.4265 459.952 45.9719 459.952 48.881C459.952 51.7447 460.315 54.2674 461.043 56.4492C461.793 58.631 462.872 60.3356 464.281 61.5629C465.713 62.7901 467.463 63.4038 469.531 63.4038Z" />
        <path
            d="M412 64C412 70.6274 406.627 76 400 76C393.373 76 388 70.6274 388 64C388 57.3726 393.373 52 400 52C406.627 52 412 57.3726 412 64Z"
            fill="#BB31E8" />
    </g>
    <defs>
        <clipPath id="clip0_1_520">
            <rect width="496" height="76" fill="white" />
        </clipPath>
    </defs>
</svg>